<svg xmlns="http://www.w3.org/2000/svg" width="64" height="64" viewBox="0 0 512 512" role="img" aria-label="Vekil Pro">
  <defs><linearGradient id="vk" x1="0" y1="0" x2="1" y2="1">
    <stop offset="0" stop-color="#173C7E"/><stop offset="1" stop-color="#0B1F45"/>
  </linearGradient></defs>
  <rect width="512" height="512" rx="96" fill="url(#vk)"/>
  <g transform="translate(256 256) scale(0.82) translate(-256 -256)">
    <path d="M110 300 A46 46 0 0 0 202 300 Z" fill="#E3C275"/>
    <path d="M310 300 A46 46 0 0 0 402 300 Z" fill="#E3C275"/>
    <g fill="none" stroke="#F0F4FC" stroke-width="22" stroke-linecap="round" stroke-linejoin="round">
      <line x1="140" y1="150" x2="372" y2="150"/>
      <line x1="256" y1="150" x2="256" y2="402"/>
      <line x1="152" y1="158" x2="110" y2="300"/>
      <line x1="152" y1="158" x2="202" y2="300"/>
      <line x1="360" y1="158" x2="310" y2="300"/>
      <line x1="360" y1="158" x2="402" y2="300"/>
      <line x1="110" y1="300" x2="202" y2="300"/>
      <line x1="310" y1="300" x2="402" y2="300"/>
      <line x1="196" y1="436" x2="316" y2="436"/>
    </g>
    <path d="M238 402 L274 402 L292 436 L220 436 Z" fill="#F0F4FC"/>
    <circle cx="256" cy="104" r="26" fill="#E3C275"/>
  </g>
</svg>